<svg width="1024" height="1024" viewBox="0 0 1024 1024" fill="none" xmlns="http://www.w3.org/2000/svg">
  <defs>
    <linearGradient id="bg" x1="126" y1="80" x2="884" y2="944" gradientUnits="userSpaceOnUse">
      <stop stop-color="#071D15"/>
      <stop offset=".58" stop-color="#0B3424"/>
      <stop offset="1" stop-color="#0AAE63"/>
    </linearGradient>
    <linearGradient id="bag" x1="258" y1="278" x2="768" y2="838" gradientUnits="userSpaceOnUse">
      <stop stop-color="#EFFFF6"/>
      <stop offset=".45" stop-color="#5DE89C"/>
      <stop offset="1" stop-color="#0AAE63"/>
    </linearGradient>
    <linearGradient id="gold" x1="707" y1="150" x2="843" y2="306" gradientUnits="userSpaceOnUse">
      <stop stop-color="#FFF1A8"/>
      <stop offset=".5" stop-color="#D5A427"/>
      <stop offset="1" stop-color="#8C6810"/>
    </linearGradient>
    <filter id="shadow" x="128" y="142" width="768" height="786" filterUnits="userSpaceOnUse" color-interpolation-filters="sRGB">
      <feDropShadow dx="0" dy="34" stdDeviation="38" flood-color="#04110C" flood-opacity=".35"/>
    </filter>
  </defs>
  <rect width="1024" height="1024" rx="226" fill="url(#bg)"/>
  <circle cx="242" cy="194" r="142" fill="#7CF2B0" opacity=".11"/>
  <circle cx="826" cy="793" r="198" fill="#FFFFFF" opacity=".08"/>
  <g filter="url(#shadow)">
    <path d="M261 390C269 342 310 306 359 306H665C714 306 755 342 763 390L821 756C831 817 784 872 722 872H302C240 872 193 817 203 756L261 390Z" fill="url(#bag)" stroke="#F7FFF9" stroke-width="34" stroke-linejoin="round"/>
    <path d="M369 332V292C369 211 433 146 512 146C591 146 655 211 655 292V332" stroke="#F7FFF9" stroke-width="48" stroke-linecap="round"/>
    <path d="M369 332V300C369 229 432 179 512 179C592 179 655 229 655 300V332" stroke="#0B3424" stroke-width="18" stroke-linecap="round" opacity=".28"/>
    <path d="M363 596L466 699L664 475" stroke="#071D15" stroke-width="72" stroke-linecap="round" stroke-linejoin="round"/>
    <path d="M366 596L466 696L660 477" stroke="#FFFFFF" stroke-width="28" stroke-linecap="round" stroke-linejoin="round" opacity=".22"/>
  </g>
  <circle cx="760" cy="220" r="78" fill="url(#gold)" stroke="#FFF6C8" stroke-width="18"/>
  <path d="M736 221H786" stroke="#061512" stroke-width="22" stroke-linecap="round"/>
  <path d="M761 196V246" stroke="#061512" stroke-width="22" stroke-linecap="round"/>
</svg>
