<svg width="820" height="240" viewBox="0 0 820 240" fill="none" xmlns="http://www.w3.org/2000/svg">
  <defs>
    <linearGradient id="markBg" x1="32" y1="28" x2="194" y2="206" gradientUnits="userSpaceOnUse">
      <stop stop-color="#071D15"/>
      <stop offset=".72" stop-color="#0AAE63"/>
      <stop offset="1" stop-color="#7CF2B0"/>
    </linearGradient>
    <linearGradient id="gold" x1="151" y1="43" x2="192" y2="91" gradientUnits="userSpaceOnUse">
      <stop stop-color="#FFF1A8"/>
      <stop offset=".56" stop-color="#D5A427"/>
      <stop offset="1" stop-color="#8C6810"/>
    </linearGradient>
  </defs>
  <rect width="820" height="240" rx="46" fill="#F7FBF8"/>
  <rect x="42" y="43" width="154" height="154" rx="40" fill="url(#markBg)"/>
  <path d="M81 111C84 96 97 85 112 85H143C158 85 171 96 174 111L187 169C190 188 176 205 157 205H88C69 205 55 188 58 169L81 111Z" fill="#EFFFF6"/>
  <path d="M94 92V79C94 52 116 31 143 31C169 31 191 52 191 79V92" stroke="#EFFFF6" stroke-width="15" stroke-linecap="round"/>
  <path d="M91 147L115 171L162 118" stroke="#071D15" stroke-width="19" stroke-linecap="round" stroke-linejoin="round"/>
  <circle cx="178" cy="67" r="24" fill="url(#gold)" stroke="#FFF6C8" stroke-width="6"/>
  <text x="228" y="116" fill="#071D15" font-family="Inter, Arial, sans-serif" font-size="70" font-weight="950" letter-spacing="-2">Bag Guy</text>
  <text x="232" y="158" fill="#5C7168" font-family="Inter, Arial, sans-serif" font-size="24" font-weight="850" letter-spacing="1.8">ONE SCAN. EVERY DEAL. AUTOMATIC REWARDS.</text>
</svg>
