<svg width="1024" height="1024" viewBox="0 0 1024 1024" fill="none" xmlns="http://www.w3.org/2000/svg">
  <defs>
    <linearGradient id="bg" x1="120" y1="90" x2="890" y2="930" gradientUnits="userSpaceOnUse">
      <stop stop-color="#050F0B"/>
      <stop offset=".55" stop-color="#0B2E20"/>
      <stop offset="1" stop-color="#0AAE63"/>
    </linearGradient>
    <linearGradient id="gold" x1="250" y1="210" x2="770" y2="805" gradientUnits="userSpaceOnUse">
      <stop stop-color="#FFF4B8"/>
      <stop offset=".45" stop-color="#D5A427"/>
      <stop offset="1" stop-color="#7A5A0C"/>
    </linearGradient>
    <linearGradient id="green" x1="284" y1="290" x2="730" y2="750" gradientUnits="userSpaceOnUse">
      <stop stop-color="#EFFFF6"/>
      <stop offset=".5" stop-color="#6BEEA6"/>
      <stop offset="1" stop-color="#0AAE63"/>
    </linearGradient>
    <filter id="shadow" x="134" y="146" width="756" height="756" filterUnits="userSpaceOnUse" color-interpolation-filters="sRGB">
      <feDropShadow dx="0" dy="36" stdDeviation="38" flood-color="#020806" flood-opacity=".42"/>
    </filter>
  </defs>
  <rect width="1024" height="1024" rx="222" fill="url(#bg)"/>
  <circle cx="512" cy="512" r="334" fill="url(#gold)" stroke="#FFF6C8" stroke-width="26" filter="url(#shadow)"/>
  <circle cx="512" cy="512" r="266" fill="#071D15"/>
  <path d="M348 452C356 407 394 374 440 374H584C630 374 668 407 676 452L704 632C713 688 670 738 613 738H411C354 738 311 688 320 632L348 452Z" fill="url(#green)" stroke="#F7FFF9" stroke-width="22" stroke-linejoin="round"/>
  <path d="M421 388V357C421 306 462 266 512 266C562 266 603 306 603 357V388" stroke="#F7FFF9" stroke-width="28" stroke-linecap="round"/>
  <path d="M419 579L481 641L611 493" stroke="#071D15" stroke-width="44" stroke-linecap="round" stroke-linejoin="round"/>
  <text x="512" y="845" fill="#F7FFF9" font-family="Inter, Arial, sans-serif" font-size="92" font-weight="950" text-anchor="middle" letter-spacing="3">BAG</text>
</svg>
